<svg viewBox="0 0 545 529" fill="none" xmlns="http://www.w3.org/2000/svg">
  <!-- GAMA Logo - Green primary color -->
  <path d="M186.101364,155.048157 C186.052231,159.878113 185.960907,164.708054 185.960266,169.538010 C185.951004,239.196609 185.953934,308.855225 185.953934,378.513824 C185.953934,380.496277 185.953934,382.478729 185.953934,384.855164 C250.404602,384.855164 314.594299,384.855164 379.107330,384.855164 C379.107330,320.693756 379.107330,256.619812 379.107330,192.199432 C357.878235,192.199432 336.665436,192.199432 315.073639,192.199432 C315.073639,234.962036 315.073639,277.563446 315.073639,320.527222 C293.478058,320.527222 272.256531,320.527222 250.694885,320.527222 C250.694885,256.243073 250.694885,192.013428 250.694885,127.473991 C252.155670,127.360100 253.433334,127.173851 254.711060,127.173424 C296.039612,127.159546 337.368622,127.046242 378.696564,127.203560 C409.548981,127.320999 435.891846,148.246017 442.446442,177.706879 C443.521301,182.538040 443.931519,187.609940 443.938965,192.571640 C444.035217,256.564087 444.058685,320.556824 443.981140,384.549316 C443.936371,421.505493 415.789429,449.818634 378.850220,449.895050 C315.024506,450.027069 251.198318,449.986359 187.372467,449.913208 C149.472687,449.869751 121.477013,421.932739 121.332306,383.889160 C121.172569,341.894623 121.300941,299.899048 121.289497,257.903900 C121.280243,223.908646 121.249771,189.913406 121.577271,155.448273 C143.317673,155.001663 164.709518,155.024918 186.101364,155.048157 z" fill="currentColor"/>
  <path d="M186.563293,155.028473 C164.709518,155.024918 143.317673,155.001663 121.456833,154.993698 C113.900452,155.008987 106.813065,155.008987 98.827560,155.008987 C117.203934,127.445038 135.062943,100.657104 153.308411,73.289505 C171.498291,100.624733 189.313019,127.396194 207.687454,155.008774 C200.174530,155.008774 193.599884,155.008774 186.563293,155.028473 z" fill="currentColor"/>
</svg>
